<svg width="64" height="64" viewBox="0 0 64 64" fill="none" xmlns="http://www.w3.org/2000/svg">
<g>
<path fill-rule="evenodd" clip-rule="evenodd" d="M3.32342 25.6038L15.1956 24.022C18.2573 23.6277 20.4449 20.8631 20.126 17.791L19.4311 10.8423C19.4516 4.99315 23.6905 3.42288 26.2003 3C26.0003 6.77492 25.8369 16.3625 28.646 23.8482C31.054 30.2689 36.7272 36.1215 39.8941 39.0393C41.4128 40.4313 43.3204 41.3284 45.3615 41.6096C42.7079 43.6885 37.4072 46.4943 31.5431 42.0965C23.0539 35.7295 6.54058 35.982 2.90966 36.1226C3.08566 35.4152 3.25592 34.6964 3.40567 33.9512C3.76455 31.1787 3.73717 28.3695 3.32342 25.6038ZM30.0461 31.9136C29.9455 32.0245 29.8643 32.1525 29.8061 32.2907C29.7466 32.4278 29.7157 32.5752 29.7147 32.7252C29.7112 33.0292 29.8313 33.3219 30.0461 33.5366C30.2608 33.7514 30.5535 33.8714 30.8575 33.868C30.9341 33.8657 31.0107 33.8577 31.0861 33.8451C31.157 33.8325 31.2267 33.8096 31.2919 33.7765C31.3627 33.7536 31.4279 33.7194 31.4861 33.6736C31.5512 33.6336 31.613 33.5879 31.669 33.5365C31.7696 33.4256 31.8507 33.2976 31.909 33.1593C32.0312 32.8827 32.0312 32.5673 31.909 32.2907C31.8507 32.1525 31.7696 32.0245 31.669 31.9136C31.2107 31.4907 30.5044 31.4907 30.0461 31.9136ZM28.2403 27.342C27.7821 26.9192 27.0757 26.9192 26.6174 27.342C26.5134 27.4518 26.4323 27.5798 26.3773 27.7192C26.3179 27.8563 26.2871 28.0037 26.2859 28.1534C26.2859 28.7843 26.7979 29.2963 27.4288 29.2963C28.0597 29.2963 28.5717 28.7843 28.5717 28.1534C28.5706 28.0049 28.5386 27.8563 28.4803 27.7192C28.4255 27.5787 28.3432 27.4518 28.2403 27.342ZM26.0917 22.942L25.9545 22.7706C25.8437 22.67 25.7157 22.5889 25.5777 22.5307C25.1513 22.3513 24.6599 22.4461 24.3319 22.7707C24.1228 22.9901 24.0052 23.2792 24.0005 23.5821C24.0028 23.7317 24.0337 23.8792 24.0919 24.0164C24.149 24.1546 24.2313 24.2826 24.3319 24.3935C24.5513 24.6026 24.8404 24.7203 25.1433 24.7249C25.2929 24.7284 25.4415 24.6975 25.5775 24.6335C25.7169 24.5775 25.8449 24.4964 25.9547 24.3935C26.1627 24.1741 26.2814 23.885 26.2861 23.5821C26.2838 23.5055 26.2769 23.4289 26.2632 23.3535C26.2506 23.2826 26.2277 23.2129 26.1946 23.1477C26.1694 23.0746 26.1351 23.006 26.0917 22.942ZM23.566 17.959C23.2791 18.0642 23.054 18.2893 22.9489 18.5762C22.8894 18.7134 22.8585 18.8608 22.8573 19.0106C22.8595 19.0872 22.8664 19.1638 22.8801 19.2392C22.8928 19.3112 22.9156 19.3798 22.9488 19.4449C22.9739 19.5181 23.0083 19.5867 23.0516 19.6507L23.1888 19.8221C23.3008 19.9227 23.4276 20.0038 23.5659 20.0621C23.703 20.1203 23.8504 20.1512 24.0002 20.1534C24.0768 20.1512 24.1534 20.1443 24.2288 20.1306C24.2997 20.1179 24.3694 20.0951 24.4345 20.0619C24.5077 20.0368 24.5763 20.0024 24.6403 19.9591L24.8117 19.8219L24.9488 19.6506C24.9923 19.5866 25.0265 19.5179 25.0517 19.4448C25.0849 19.3797 25.1077 19.3111 25.1203 19.2391C25.1329 19.1636 25.1409 19.0871 25.1432 19.0104C25.142 18.8619 25.11 18.7133 25.0518 18.5762C24.9935 18.4379 24.9124 18.3099 24.8118 18.199L24.6404 18.0619C24.5764 18.0184 24.5078 17.9842 24.4347 17.959C24.3695 17.9258 24.3009 17.903 24.2289 17.8904C24.006 17.8448 23.774 17.8677 23.566 17.959Z" fill="#8D8D8D"/>
<path d="M14.8939 21.7569L3.03667 23.3363C2.70867 20.9991 2.29029 18.6437 1.87666 16.5431C1.75441 15.9226 1.89616 15.2779 2.26754 14.7648C2.64004 14.2528 3.20805 13.9168 3.83668 13.8402L17.2655 12.1625L17.8517 18.0197C18.0426 19.862 16.7306 21.5203 14.8939 21.7569Z" fill="#8D8D8D"/>
<path d="M62.9025 52.1914C57.2773 55.7469 44.2816 56.5721 40.0005 56.5721C37.7764 56.5035 35.5742 56.1115 33.4633 55.4087C29.7306 54.1549 25.7614 53.7687 21.8563 54.2784C13.9179 55.2682 3.73267 52.1755 0.574882 51.1241L0 52.2725V58.2726C0.722258 58.6704 1.48914 58.9789 2.28578 59.1915V58.8555C2.28578 58.2246 2.79778 57.7126 3.42866 57.7126C4.05955 57.7126 4.57155 58.2246 4.57155 58.8555V59.7092C5.24581 59.827 6.00819 59.9299 6.85733 60.0144V59.9984C6.85733 59.3675 7.36934 58.8555 8.00022 58.8555C8.6311 58.8555 9.14311 59.3675 9.14311 59.9984V60.1777C9.85286 60.2086 10.6185 60.2235 11.4289 60.2246V59.9984C11.4289 59.3675 11.9409 58.8555 12.5718 58.8555C13.2027 58.8555 13.7147 59.3675 13.7147 59.9984V60.1892C14.3295 60.1675 14.9673 60.139 15.6336 60.099C15.8358 60.0899 15.9969 59.9252 16.0004 59.7219C15.9936 57.9698 17.3147 56.4978 19.0576 56.3138C21.5776 56.0236 24.1205 55.9916 26.6463 56.2201C28.3892 56.4087 29.7115 57.8795 29.715 59.6327V59.939C29.7116 60.1139 29.8327 60.2681 30.003 60.3059C30.5081 60.4121 31.227 60.5459 32.0979 60.6796C32.2785 60.2636 32.6888 59.995 33.1425 59.9939C33.7003 59.9985 34.1711 60.4099 34.2499 60.9619C34.955 61.0373 35.7425 61.1013 36.571 61.1561V61.1401C36.571 60.5093 37.0831 59.9972 37.7139 59.9972C38.3448 59.9972 38.8568 60.5093 38.8568 61.1401V61.2613C39.5882 61.2806 40.3448 61.291 41.1426 61.2819V61.1401C41.1426 60.5093 41.6546 59.9972 42.2855 59.9972C42.9164 59.9972 43.4284 60.5093 43.4284 61.1401V61.2179C44.1724 61.1836 44.9393 61.1333 45.7278 61.0681C45.7518 60.5104 46.1827 60.0544 46.738 59.9984C47.2934 59.9424 47.8067 60.3035 47.9414 60.8453C48.7048 60.7561 49.4888 60.6475 50.2855 60.5252V60.1526C50.2832 59.5252 50.7872 59.0144 51.4146 59.0075C52.042 59.0017 52.5564 59.5024 52.5666 60.1297C53.3175 59.988 54.082 59.8257 54.8569 59.652V59.0097C54.8569 58.3789 55.3689 57.8668 55.9998 57.8668C56.6307 57.8668 57.1427 58.3789 57.1427 59.0097V59.0944C57.8969 58.8966 58.6569 58.6875 59.4284 58.4566V57.8668C59.4284 57.564 59.5484 57.2726 59.7633 57.0588C59.9782 56.844 60.2684 56.724 60.5713 56.724C61.152 56.7273 61.6353 57.1697 61.6902 57.748C63.0754 57.2726 64.0045 55.9686 64 54.5033V54.1204C63.9985 53.3298 63.5814 52.5972 62.9025 52.1914Z" fill="#8D8D8D"/>
<path d="M25.3123 51.7687C24.062 51.7709 22.8129 51.852 21.5729 52.0109C13.9362 52.9663 3.61606 49.7331 1.00803 48.8566C0.450399 45.2795 1.29378 42.1708 2.26178 38.6028L2.30754 38.4314C2.31554 38.4308 2.32298 38.4325 2.33042 38.4343C2.33786 38.436 2.34529 38.4377 2.35329 38.4371L2.36204 38.4367C2.86031 38.4112 21.5469 37.4567 30.1719 43.9252C32.3685 45.6807 35.0863 46.6567 37.8977 46.7001C43.404 46.7001 47.6189 42.7583 48.6292 41.724H56.0007C59.1538 41.7264 61.7104 44.2807 61.715 47.4339V50.2613C57.3893 53.0042 46.3686 54.2864 40.0005 54.2864C37.988 54.2156 35.9948 53.8532 34.0862 53.2098C31.2495 52.2933 28.293 51.8075 25.3123 51.7687Z" fill="#8D8D8D"/>
</g>
</svg>
